# xmcd
#
# Track frame offsets:
#	150
#	11795
#	22017
#	30749
#	39105
#	53058
#	63879
#	72482
#	85342
#	97190
#
# Disc length: 1436 seconds
#
# Revision: 1
# Processed by: cddbd v1.5.2PL0 Copyright (c) Steve Scherf et al.
# Submitted via: audiograbber 1.83.01
#
DISCID=80059a0a
DTITLE=Red Steagall - Texas Red
DYEAR=1900
DGENRE=Country
TTITLE0=Miles and Miles of Texas
TTITLE1=Cheatin's the Same
TTITLE2=Texas Red
TTITLE3=I Left My Heart in San Francisco
TTITLE4=Rosie (Do You Want to Talk it Over)
TTITLE5=San Antonio Champagne
TTITLE6=Take Me Back to Texas
TTITLE7=Her L-O-V-E-S Gone
TTITLE8=There's Still a Lot of Love in San Antonio
TTITLE9=Lone Star Love
EXTD=
EXTT0=
EXTT1=
EXTT2=
EXTT3=
EXTT4=
EXTT5=
EXTT6=
EXTT7=
EXTT8=
EXTT9=
PLAYORDER=
